# xmcd CD database file
#
# Track frame offsets:
#	150
#	8338
#	17828
#	30953
#	39610
#	48683
#	58055
#	68853
#	77638
#	85220
#	99468
#	107258
#	117875
#	129988
#
# Disc length: 1883 seconds
#
# Revision: 0
# Processed by: cddbd v1.5.2PL0 Copyright (c) Steve Scherf et al.
# Submitted via: CDex 1.51
#
DISCID=a207590e
DTITLE=Roberto Menescal - pure bossa nova
DYEAR=2005
DGENRE=Jazz
TTITLE0=Rio
TTITLE1=O barquinho
TTITLE2=Nos e o mar
TTITLE3=Ah! Se eu pudesse
TTITLE4=Voce
TTITLE5=Amanhecendo
TTITLE6=Moca da praia
TTITLE7=Balansamba
TTITLE8=Vagamente
TTITLE9=Errinho a toa
TTITLE10=Telefone
TTITLE11=A morte de um deus de sa!
TTITLE12=A volta
TTITLE13=Se pelo menos voce fosse minha
EXTD=YEAR: 2005
EXTT0=
EXTT1=
EXTT2=
EXTT3=
EXTT4=
EXTT5=
EXTT6=
EXTT7=
EXTT8=
EXTT9=
EXTT10=
EXTT11=
EXTT12=
EXTT13=
PLAYORDER=
